<svg width="29" height="30" viewBox="0 0 29 30" fill="none" xmlns="http://www.w3.org/2000/svg">
<path fill-rule="evenodd" clip-rule="evenodd" d="M0 6.5C0 3.18629 2.68629 0.5 6 0.5H23C26.3137 0.5 29 3.18629 29 6.5V23.5C29 26.8137 26.3137 29.5 23 29.5H6C2.68629 29.5 0 26.8137 0 23.5V6.5Z" fill="#007AFF"/>
<path fill-rule="evenodd" clip-rule="evenodd" d="M18.6667 18.915V21C18.6667 23.2091 16.8012 25 14.5 25C12.1989 25 10.3334 23.2091 10.3334 21V18.915C10.3334 18.7197 10.2613 18.5067 10.0911 18.2262C9.98181 18.046 9.83877 17.848 9.62296 17.5739L9.55036 17.483L9.55021 17.4828C9.40604 17.3024 9.0915 16.9089 8.97536 16.7583C7.79842 15.2322 7.20837 13.8699 7.20837 12C7.20837 8.13401 10.473 5 14.5 5C18.5271 5 21.7917 8.13401 21.7917 12C21.7917 13.9108 21.1936 15.3248 20.0267 16.848C19.903 17.0094 19.591 17.3987 19.4062 17.6292L19.4062 17.6292C19.3339 17.7195 19.281 17.7854 19.2666 17.8039C19.0308 18.105 18.8843 18.3185 18.7891 18.5039C18.7029 18.6717 18.6667 18.8013 18.6667 18.915ZM16.6289 18.4393C16.682 18.1627 16.7808 17.8913 16.9207 17.6191C17.0851 17.2991 17.2942 16.9943 17.6013 16.6022C17.6223 16.5752 17.6902 16.4905 17.7779 16.381L17.778 16.381C17.9655 16.1469 18.2437 15.7996 18.3484 15.663C19.274 14.4548 19.7084 13.4279 19.7084 12C19.7084 9.23858 17.3765 7 14.5 7C11.6236 7 9.29171 9.23858 9.29171 12C9.29171 13.3785 9.71531 14.3566 10.6497 15.5682C10.75 15.6983 11.0334 16.0529 11.1864 16.2444L11.2849 16.3679C11.5466 16.7003 11.7318 16.9566 11.8914 17.2196C12.1399 17.6291 12.3048 18.0283 12.3763 18.4423C13.0254 18.8163 13.7271 19 14.5 19C15.275 19 15.9783 18.8153 16.6289 18.4393ZM16.5834 21V20.6624C15.9246 20.8869 15.2285 21 14.5 21C13.7716 21 13.0755 20.8869 12.4167 20.6624V21C12.4167 22.1046 13.3494 23 14.5 23C15.6506 23 16.5834 22.1046 16.5834 21Z" fill="white"/>
</svg>
