<svg width="29" height="29" viewBox="0 0 29 29" fill="none" xmlns="http://www.w3.org/2000/svg">
<path fill-rule="evenodd" clip-rule="evenodd" d="M0 6C0 2.68629 2.68629 0 6 0H23C26.3137 0 29 2.68629 29 6V23C29 26.3137 26.3137 29 23 29H6C2.68629 29 0 26.3137 0 23V6Z" fill="#FF3B30"/>
<path d="M20.2854 7H12.8568C11.91 7 11.1425 7.76751 11.1425 8.71428V12.1429C11.1425 12.4585 11.3983 12.7143 11.7139 12.7143C12.0295 12.7143 12.2854 12.4585 12.2854 12.1429V8.71428C12.2854 8.39868 12.5412 8.14285 12.8568 8.14285H20.2854C20.601 8.14285 20.8568 8.39868 20.8568 8.71428V21.2857C20.8568 21.6013 20.601 21.8572 20.2854 21.8572H12.8568C12.5412 21.8572 12.2853 21.6013 12.2853 21.2857V17.8571C12.2853 17.5415 12.0295 17.2857 11.7139 17.2857C11.3983 17.2857 11.1425 17.5415 11.1425 17.8571V21.2857C11.1425 22.2325 11.91 23 12.8567 23H20.2853C21.2321 23 21.9996 22.2325 21.9996 21.2857V8.71428C21.9996 7.76751 21.2321 7 20.2854 7Z" fill="white"/>
<path d="M17.4282 14.4139H7.95055L9.83228 12.5322C10.0515 12.3052 10.0452 11.9435 9.81821 11.7242C9.59676 11.5104 9.2457 11.5104 9.02429 11.7242L6.16712 14.5814C6.11405 14.6345 6.0721 14.6976 6.04371 14.7671C5.98592 14.9069 5.98592 15.0639 6.04371 15.2037C6.07224 15.2734 6.11439 15.3367 6.16769 15.3899L9.02482 18.2471C9.24406 18.4741 9.6058 18.4804 9.83281 18.2611C10.0598 18.0419 10.0661 17.6802 9.84688 17.4531C9.84229 17.4484 9.8376 17.4437 9.83281 17.4391L7.95055 15.5568H17.4283C17.7439 15.5568 17.9997 15.301 17.9997 14.9854C17.9997 14.6697 17.7438 14.4139 17.4282 14.4139Z" fill="white"/>
</svg>
