<svg width="29" height="30" viewBox="0 0 29 30" fill="none" xmlns="http://www.w3.org/2000/svg">
<path fill-rule="evenodd" clip-rule="evenodd" d="M0 6.5C0 3.18629 2.68629 0.5 6 0.5H23C26.3137 0.5 29 3.18629 29 6.5V23.5C29 26.8137 26.3137 29.5 23 29.5H6C2.68629 29.5 0 26.8137 0 23.5V6.5Z" fill="#007AFF"/>
<path d="M11 7H7.57144C7.25584 7 7 7.25584 7 7.57144V11C7 11.3156 7.25584 11.5714 7.57144 11.5714H11C11.3156 11.5714 11.5714 11.3156 11.5714 11V7.57144C11.5714 7.25584 11.3156 7 11 7ZM10.4286 10.4286H8.14285V8.14285H10.4286V10.4286Z" fill="white"/>
<path d="M11 12.7143H7.57144C7.25584 12.7143 7 12.9701 7 13.2857V16.7143C7 17.0299 7.25584 17.2857 7.57144 17.2857H11C11.3156 17.2857 11.5714 17.0299 11.5714 16.7143V13.2857C11.5714 12.9701 11.3156 12.7143 11 12.7143ZM10.4286 16.1429H8.14285V13.8571H10.4286V16.1429Z" fill="white"/>
<path d="M11 18.4286H7.57144C7.25584 18.4286 7 18.6844 7 19V22.4286C7 22.7442 7.25584 23 7.57144 23H11C11.3156 23 11.5714 22.7442 11.5714 22.4286V19C11.5714 18.6844 11.3156 18.4286 11 18.4286ZM10.4286 21.8571H8.14285V19.5714H10.4286V21.8571Z" fill="white"/>
<path d="M22.4287 8.71428H13.2858C12.9702 8.71428 12.7144 8.97012 12.7144 9.28572C12.7144 9.60132 12.9702 9.85716 13.2858 9.85716H22.4287C22.7443 9.85716 23.0001 9.60132 23.0001 9.28572C23.0001 8.97012 22.7443 8.71428 22.4287 8.71428Z" fill="white"/>
<path d="M22.4287 14.4286H13.2858C12.9702 14.4286 12.7144 14.6844 12.7144 15C12.7144 15.3156 12.9702 15.5714 13.2858 15.5714H22.4287C22.7443 15.5714 23.0001 15.3156 23.0001 15C23.0001 14.6844 22.7443 14.4286 22.4287 14.4286Z" fill="white"/>
<path d="M22.4287 20.1428H13.2858C12.9702 20.1428 12.7144 20.3987 12.7144 20.7143C12.7144 21.0299 12.9702 21.2857 13.2858 21.2857H22.4287C22.7443 21.2857 23.0001 21.0299 23.0001 20.7143C23.0001 20.3987 22.7443 20.1428 22.4287 20.1428Z" fill="white"/>
</svg>
