<svg width="25" height="25" viewBox="0 0 25 25" fill="none" xmlns="http://www.w3.org/2000/svg">
<circle cx="12.5" cy="12.5" r="12.5" fill="white"/>
<path fill-rule="evenodd" clip-rule="evenodd" d="M20.4733 8.61277C20.5891 8.22651 20.4733 7.94269 19.922 7.94269H18.0991C17.6356 7.94269 17.4219 8.18787 17.306 8.45823C17.306 8.45823 16.379 10.7178 15.0658 12.1856C14.6409 12.6104 14.4478 12.7456 14.216 12.7456C14.1002 12.7456 13.9324 12.6104 13.9324 12.2242V8.61277C13.9324 8.14926 13.7979 7.94269 13.4116 7.94269H10.547C10.2574 7.94269 10.0832 8.15781 10.0832 8.36169C10.0832 8.80109 10.7398 8.90242 10.8075 10.1384V12.8229C10.8075 13.4114 10.7012 13.5181 10.4694 13.5181C9.85144 13.5181 8.34821 11.2485 7.45665 8.65138C7.28193 8.14659 7.10668 7.94269 6.64079 7.94269H4.81788C4.29704 7.94269 4.19287 8.18787 4.19287 8.45823C4.19287 8.94106 4.81088 11.3358 7.07043 14.5031C8.57678 16.666 10.6991 17.8385 12.6304 17.8385C13.7891 17.8385 13.9325 17.5781 13.9325 17.1295V15.4948C13.9325 14.9739 14.0422 14.87 14.4092 14.87C14.6795 14.87 15.143 15.0052 16.2246 16.0481C17.4605 17.284 17.6643 17.8385 18.3595 17.8385H20.1825C20.7033 17.8385 20.9637 17.5781 20.8135 17.0642C20.6491 16.552 20.059 15.8088 19.2759 14.9279C18.851 14.4258 18.2137 13.8851 18.0206 13.6147C17.7502 13.2671 17.8275 13.1125 18.0206 12.8036C18.0206 12.8036 20.2416 9.67493 20.4733 8.61277Z" fill="url(#paint0_linear)"/>
<defs>
<linearGradient id="paint0_linear" x1="20.8557" y1="12.8906" x2="4.19287" y2="12.8906" gradientUnits="userSpaceOnUse">
<stop stop-color="#86A8E7"/>
<stop offset="1" stop-color="#5070E1"/>
</linearGradient>
</defs>
</svg>
