<svg width="57" height="52" viewBox="0 0 57 52" fill="none" xmlns="http://www.w3.org/2000/svg">
<g filter="url(#filter0_d)">
<path d="M34.75 18H22.25V30.5H34.75V18Z" fill="url(#paint0_linear)"/>
<path d="M28.5 37C21.5964 37 16 31.4036 16 24.5C16 17.5964 21.5964 12 28.5 12C35.4036 12 41 17.5964 41 24.5C41 31.4036 35.4036 37 28.5 37ZM22.7762 28.5343C23.6736 29.4273 26.0639 29.9635 28.5 29.9729C30.936 29.9635 33.3264 29.4273 34.2238 28.5343C36.4533 26.3158 31.0338 17.8162 28.5028 17.8039C25.9662 17.8162 20.5467 26.3158 22.7762 28.5343Z" fill="white"/>
</g>
<defs>
<filter id="filter0_d" x="0" y="0" width="57" height="57" filterUnits="userSpaceOnUse" color-interpolation-filters="sRGB">
<feFlood flood-opacity="0" result="BackgroundImageFix"/>
<feColorMatrix in="SourceAlpha" type="matrix" values="0 0 0 0 0 0 0 0 0 0 0 0 0 0 0 0 0 0 127 0"/>
<feOffset dy="4"/>
<feGaussianBlur stdDeviation="8"/>
<feColorMatrix type="matrix" values="0 0 0 0 0.45098 0 0 0 0 0.152941 0 0 0 0 0.988235 0 0 0 1 0"/>
<feBlend mode="normal" in2="BackgroundImageFix" result="effect1_dropShadow"/>
<feBlend mode="normal" in="SourceGraphic" in2="effect1_dropShadow" result="shape"/>
</filter>
<linearGradient id="paint0_linear" x1="22.25" y1="30.5" x2="34.75" y2="18" gradientUnits="userSpaceOnUse">
<stop stop-color="#C926FF"/>
<stop offset="1" stop-color="#4A26FF"/>
</linearGradient>
</defs>
</svg>
